<?xml version="1.0" encoding="UTF-8"?>
<svg version="1.1" xmlns="http://www.w3.org/2000/svg" width="199" height="182">
<path d="M0 0 C65.67 0 131.34 0 199 0 C199 60.06 199 120.12 199 182 C133.33 182 67.66 182 0 182 C0 121.94 0 61.88 0 0 Z " fill="#FCFDFD" transform="translate(0,0)"/>
<path d="M0 0 C0.9215538 0.00222061 1.8431076 0.00444122 2.79258728 0.00672913 C3.83359085 0.00680466 4.87459442 0.00688019 5.94714355 0.00695801 C7.07941879 0.01211929 8.21169403 0.01728058 9.37828064 0.02259827 C10.53106003 0.02401321 11.68383942 0.02542816 12.87155151 0.02688599 C16.57043503 0.03250446 20.26925903 0.0450601 23.96812439 0.05775452 C26.46877456 0.06276714 28.96942567 0.06733045 31.47007751 0.07142639 C37.61528027 0.0824799 43.76044808 0.099236 49.90562439 0.12025452 C49.90562439 0.78025452 49.90562439 1.44025452 49.90562439 2.12025452 C50.56562439 2.12025452 51.22562439 2.12025452 51.90562439 2.12025452 C52.57916938 3.55454453 53.2442214 4.99282508 53.90562439 6.43275452 C54.27687439 7.23326233 54.64812439 8.03377014 55.03062439 8.85853577 C55.90562439 11.12025452 55.90562439 11.12025452 55.90562439 14.12025452 C56.56562439 14.12025452 57.22562439 14.12025452 57.90562439 14.12025452 C58.13225769 14.63934387 58.35889099 15.15843323 58.59239197 15.69325256 C59.63081414 18.06629737 60.67442001 20.43702845 61.71812439 22.80775452 C62.07455017 23.62437561 62.43097595 24.4409967 62.79820251 25.28236389 C64.28586018 28.65347805 65.74880848 31.86260354 67.66734314 35.01478577 C68.90562439 37.12025452 68.90562439 37.12025452 68.90562439 40.12025452 C69.56562439 40.12025452 70.22562439 40.12025452 70.90562439 40.12025452 C71.74260825 42.57739999 72.57534863 45.03584308 73.40562439 47.49525452 C73.64410095 48.19392639 73.88257751 48.89259827 74.12828064 49.61244202 C75.90562439 54.89369202 75.90562439 54.89369202 75.90562439 57.12025452 C76.56562439 57.12025452 77.22562439 57.12025452 77.90562439 57.12025452 C81.39958228 63.81834891 84.50541949 70.65091894 87.49375916 77.58509827 C89.18738822 81.52121945 89.18738822 81.52121945 91.11265564 85.34681702 C91.90562439 87.12025452 91.90562439 87.12025452 91.90562439 91.12025452 C85.71263797 91.21913541 79.52011107 91.29172938 73.32652283 91.33998108 C71.21967057 91.36009578 69.11287414 91.38739119 67.00621033 91.42201233 C63.97774992 91.4705362 60.95002761 91.49322468 57.92124939 91.51087952 C56.50854767 91.54184723 56.50854767 91.54184723 55.06730652 91.57344055 C48.52548464 91.57568495 48.52548464 91.57568495 45.34336853 89.23768616 C43.78620487 86.94437992 42.91803705 84.95316409 42.09312439 82.30775452 C40.25584059 76.82529967 37.91028105 71.73741106 35.27940369 66.59950256 C33.02713202 62.01236973 32.32088317 58.14211742 31.90562439 53.12025452 C31.24562439 53.12025452 30.58562439 53.12025452 29.90562439 53.12025452 C29.90562439 52.13025452 29.90562439 51.14025452 29.90562439 50.12025452 C29.24562439 50.12025452 28.58562439 50.12025452 27.90562439 50.12025452 C26.89892399 47.85218248 25.90010673 45.58117698 24.90562439 43.30775452 C24.61945251 42.66515686 24.33328064 42.0225592 24.03843689 41.36048889 C22.76851398 38.44268983 21.90562439 36.33759738 21.90562439 33.12025452 C13.65562439 33.12025452 5.40562439 33.12025452 -3.09437561 33.12025452 C-3.11728722 28.58121086 -3.13721342 24.04236649 -3.14930725 19.50331116 C-3.15434701 17.95805686 -3.16117881 16.41280735 -3.16981506 14.86756897 C-3.18189637 12.65100423 -3.18760734 10.43450233 -3.19203186 8.21791077 C-3.19719315 7.52311111 -3.20235443 6.82831146 -3.20767212 6.11245728 C-3.20786838 4.44796122 -3.1562669 2.78359953 -3.09437561 1.12025452 C-2.09437561 0.12025452 -2.09437561 0.12025452 0 0 Z " fill="#2C3C4C" transform="translate(99.09437561035156,76.87974548339844)"/>
<path d="M0 0 C0.86825912 0.00222061 1.73651825 0.00444122 2.63108826 0.00672913 C3.61202957 0.00680466 4.59297089 0.00688019 5.6036377 0.00695801 C6.6702916 0.01211929 7.7369455 0.01728058 8.83592224 0.02259827 C10.46520912 0.02472069 10.46520912 0.02472069 12.12741089 0.02688599 C15.61230674 0.03250403 19.09713941 0.04505959 22.58201599 0.05775452 C24.93813486 0.06276719 27.29425473 0.0673305 29.65037537 0.07142639 C35.44011063 0.08247933 41.2298088 0.09923501 47.01951599 0.12025452 C48.02683998 2.05395683 49.02514888 3.99235758 50.01951599 5.93275452 C50.57639099 7.01169983 51.13326599 8.09064514 51.70701599 9.20228577 C53.01951599 12.12025452 53.01951599 12.12025452 53.01951599 15.12025452 C53.67951599 15.12025452 54.33951599 15.12025452 55.01951599 15.12025452 C58.01951599 21.62025452 58.01951599 21.62025452 58.01951599 26.12025452 C46.13951599 26.12025452 34.25951599 26.12025452 22.01951599 26.12025452 C22.01951599 37.01025452 22.01951599 47.90025452 22.01951599 59.12025452 C5.18951599 59.12025452 -11.64048401 59.12025452 -28.98048401 59.12025452 C-28.65048401 57.47025452 -28.32048401 55.82025452 -27.98048401 54.12025452 C-27.32048401 54.12025452 -26.66048401 54.12025452 -25.98048401 54.12025452 C-25.86704651 53.59560608 -25.75360901 53.07095764 -25.63673401 52.53041077 C-24.7968807 49.4459495 -23.64537172 46.53431352 -22.48048401 43.55775452 C-21.25647124 40.42300089 -20.04467106 37.31281567 -18.98048401 34.12025452 C-18.32048401 34.12025452 -17.66048401 34.12025452 -16.98048401 34.12025452 C-16.32048401 32.14025452 -15.66048401 30.16025452 -14.98048401 28.12025452 C-14.32048401 28.12025452 -13.66048401 28.12025452 -12.98048401 28.12025452 C-12.32048401 24.49025452 -11.66048401 20.86025452 -10.98048401 17.12025452 C-10.32048401 17.12025452 -9.66048401 17.12025452 -8.98048401 17.12025452 C-8.86704651 16.5878717 -8.75360901 16.05548889 -8.63673401 15.50697327 C-7.81913636 12.53344847 -6.67207036 9.77662775 -5.48048401 6.93275452 C-5.03704651 5.86669983 -4.59360901 4.80064514 -4.13673401 3.70228577 C-2.54811185 0.15472074 -2.54811185 0.15472074 0 0 Z " fill="#2E3E4E" transform="translate(73.98048400878906,16.879745483398438)"/>
<path d="M0 0 C0 10.89 0 21.78 0 33 C-28.66264564 33.95089346 -57.32640204 34.49544773 -86 35 C-86 23.45 -86 11.9 -86 0 C-57.26983224 -1.08643492 -28.73470638 -0.75434407 0 0 Z " fill="#03B6EE" transform="translate(182,43)"/>
<path d="M0 0 C14.52 0 29.04 0 44 0 C43.34 2.64 42.68 5.28 42 8 C41.34 8 40.68 8 40 8 C39.89558594 8.86753906 39.79117188 9.73507813 39.68359375 10.62890625 C38.96124411 14.19112191 37.77806539 16.7454578 36.0625 19.9375 C33.80673397 24.28133721 32.08278235 28.23575766 31 33 C30.34 33 29.68 33 29 33 C28.67 35.31 28.34 37.62 28 40 C24.04 48.91 24.04 48.91 20 58 C5.15 58 -9.7 58 -25 58 C-25 56.68 -25 55.36 -25 54 C-24.34 54 -23.68 54 -23 54 C-22.896875 53.319375 -22.79375 52.63875 -22.6875 51.9375 C-21.86288548 48.41414706 -20.42388576 45.3224001 -19 42 C-18.30859478 39.22111387 -18.30859478 39.22111387 -18 37 C-17.34 37 -16.68 37 -16 37 C-15.86980469 36.4225 -15.73960938 35.845 -15.60546875 35.25 C-13.41549546 27.11177668 -8.79210935 19.47045542 -5 12 C-4.34 12 -3.68 12 -3 12 C-2.87625 10.7625 -2.7525 9.525 -2.625 8.25 C-2.2793272 4.79327201 -1.65554702 3.31109404 0 0 Z " fill="#2D3D4D" transform="translate(28,110)"/>
<path d="M0 0 C0.99 0.33 1.98 0.66 3 1 C4.45706917 1.11349848 5.91844959 1.17601475 7.37963867 1.20532227 C8.26032516 1.22526749 9.14101166 1.24521271 10.04838562 1.26576233 C10.99534805 1.28247482 11.94231049 1.29918732 12.91796875 1.31640625 C13.89034988 1.33718735 14.86273102 1.35796844 15.86457825 1.37937927 C18.97214665 1.44478748 22.07979985 1.50371929 25.1875 1.5625 C27.29362858 1.60569351 29.39974856 1.64930807 31.50585938 1.69335938 C36.67048591 1.80045999 41.83519778 1.90175219 47 2 C47 1.34 47 0.68 47 0 C47.66 0 48.32 0 49 0 C49 1.32 49 2.64 49 4 C32.83 4 16.66 4 0 4 C0 2.68 0 1.36 0 0 Z " fill="#B4B9BD" transform="translate(144,166)"/>
<path d="M0 0 C0.66 0 1.32 0 2 0 C2 0.66 2 1.32 2 2 C16.85 2 31.7 2 47 2 C47 2.66 47 3.32 47 4 C31.49 4 15.98 4 0 4 C0 2.68 0 1.36 0 0 Z " fill="#B6BBBF" transform="translate(1,166)"/>
<path d="M0 0 C2 2 2 2 2 6 C-9.88 6 -21.76 6 -34 6 C-34 5.34 -34 4.68 -34 4 C-22.78 4 -11.56 4 0 4 C0 2.68 0 1.36 0 0 Z " fill="#24526A" transform="translate(130,37)"/>
<path d="M0 0 C0.99 0.495 0.99 0.495 2 1 C2 1.99 2 2.98 2 4 C2.66 4 3.32 4 4 4 C4.33 5.98 4.66 7.96 5 10 C4.34 9.67 3.68 9.34 3 9 C3 8.34 3 7.68 3 7 C2.34 7 1.68 7 1 7 C0.67 4.69 0.34 2.38 0 0 Z " fill="#7A828B" transform="translate(166,113)"/>
<path d="M0 0 C0.93423645 3.01031744 1.04449911 3.86650268 0 7 C-0.66 7 -1.32 7 -2 7 C-2.33 7.66 -2.66 8.32 -3 9 C-2.44271087 5.65626525 -1.64826111 2.96687001 0 0 Z " fill="#AFB5BA" transform="translate(63,131)"/>
</svg>
